<svg width="36" height="36" viewBox="0 0 36 36" fill="none" xmlns="http://www.w3.org/2000/svg">
<circle cx="18" cy="18" r="18" fill="#7091A7"/>
<path fill-rule="evenodd" clip-rule="evenodd" d="M15.566 19.7752C16.1992 20.2644 16.8325 20.7538 17.4659 21.2433C16.8144 21.8304 16.163 22.4177 15.5118 23.0051C15.4785 22.9314 15.359 23.1197 15.1919 23.0479C15.3165 21.9569 15.4412 20.866 15.566 19.7752ZM22.7878 12.1775C23.5371 11.9219 23.7758 11.7482 23.7758 12.4588C23.0619 16.0168 22.5308 19.6154 21.6348 23.1329C21.4203 23.9753 21.4064 24.1535 20.5121 23.5177C18.8701 22.2394 15.5871 19.6837 15.5866 19.6833C15.5871 19.6828 21.066 14.8127 21.2905 14.6054C21.5151 14.3981 21.4402 14.3538 21.4402 14.3538C21.4551 14.1021 21.036 14.3538 21.036 14.3538C18.6156 15.8736 16.1953 17.3935 13.7751 18.9136C12.767 18.5779 11.7734 18.1966 10.751 17.9068C10.5118 17.839 10.2869 17.7439 10.242 17.3887C10.1971 17.0333 10.7659 16.8409 10.7659 16.8409C14.7731 15.2864 18.5062 13.6383 22.7878 12.1775ZM6 17.8665C6 11.3128 11.3726 6 18 6C24.6274 6 30 11.3128 30 17.8665C30 24.4203 24.6274 29.7331 18 29.7331C11.3726 29.7331 6 24.4203 6 17.8665Z" fill="#FDFDFD"/>
</svg>
