<svg width="38" height="27" viewBox="0 0 38 27" fill="none" xmlns="http://www.w3.org/2000/svg">
<path d="M30.534 1.26338L15.3459 16.2348L7.47262 8.48036C6.65149 7.67139 5.53808 7.21696 4.37715 7.21696C3.21622 7.21696 2.10281 7.67139 1.28168 8.48036C0.461008 9.28978 0 10.3873 0 11.5317C0 12.676 0.461008 13.7736 1.28168 14.583L12.327 25.4707C13.1262 26.2577 14.2096 26.6997 15.3393 26.6997C16.469 26.6997 17.5524 26.2577 18.3516 25.4707L36.7183 7.36602C37.539 6.5566 38 5.45907 38 4.3147C38 3.17033 37.539 2.0728 36.7183 1.26338C36.3124 0.862865 35.8304 0.545138 35.2998 0.328359C34.7692 0.11158 34.2005 0 33.6262 0C33.0518 0 32.4831 0.11158 31.9526 0.328359C31.422 0.545138 30.94 0.862865 30.534 1.26338Z" fill="#588296"/>
</svg>
