<svg width="36" height="36" viewBox="0 0 36 36" fill="none" xmlns="http://www.w3.org/2000/svg">
<circle cx="18" cy="18" r="18" fill="#7091A7"/>
<path d="M18 5C10.8319 5 5 10.8319 5 18C5 20.2383 5.57822 22.4392 6.67473 24.3813L5.5 29C5.44574 29.1939 5.4983 29.4019 5.63848 29.546C5.74643 29.6573 5.89339 29.7178 6.0443 29.7178C6.08952 29.7178 6.1353 29.7122 6.17995 29.7014L11.8595 29.4581C13.7399 30.4676 15.8578 31 18 31C25.168 31 30.9999 25.1681 30.9999 18C30.9999 10.8319 25.168 5 18 5ZM24.5395 22.5873C24.2614 23.3571 22.9275 24.0597 22.2866 24.1541C21.7112 24.2383 20.9832 24.2745 20.184 24.0235C19.6996 23.8709 19.0778 23.6686 18.2814 23.3289C14.9337 21.9011 12.7474 18.5726 12.5801 18.3527C12.4134 18.1328 11.2174 16.566 11.2174 14.9444C11.2174 13.3228 12.0793 12.5253 12.3857 12.1952C12.692 11.8651 13.0532 11.7826 13.2759 11.7826C13.4986 11.7826 13.7207 11.7854 13.9157 11.7945C14.1209 11.8047 14.3961 11.717 14.6669 12.3603C14.945 13.0204 15.6125 14.642 15.695 14.8077C15.7787 14.9727 15.8341 15.1654 15.7233 15.3853C15.6125 15.6052 15.5571 15.7425 15.3898 15.9353C15.2225 16.128 15.0394 16.3648 14.889 16.5129C14.7217 16.6774 14.5482 16.8554 14.7426 17.1855C14.9371 17.5156 15.6068 18.5946 16.5994 19.4684C17.8739 20.591 18.9495 20.9391 19.283 21.1042C19.6165 21.2692 19.8115 21.2415 20.0059 21.0217C20.2003 20.8012 20.8402 20.0591 21.0623 19.7296C21.2844 19.4 21.5071 19.4543 21.8135 19.5645C22.1198 19.6742 23.7606 20.4711 24.0941 20.6362C24.4276 20.8012 24.6503 20.8837 24.7339 21.0211C24.8176 21.1579 24.8176 21.818 24.5395 22.5873Z" fill="#FDFDFD"/>
</svg>
